<?xml version="1.0" encoding="utf-8"?>
<!-- Generator: Adobe Illustrator 26.2.1, SVG Export Plug-In . SVG Version: 6.00 Build 0)  -->
<svg version="1.1" id="Layer_1" xmlns="http://www.w3.org/2000/svg" xmlns:xlink="http://www.w3.org/1999/xlink" x="0px" y="0px"
	 viewBox="0 0 1100 700" style="enable-background:new 0 0 1100 700;" xml:space="preserve">
<style type="text/css">
	.st0{fill:#DA3833;}
</style>
<path class="st0" d="M402.4,361.5l-15.2,15.2v-37.5c2.8-4.1,4.5-8.9,4.7-13.9c0.3-7.5-2.5-14.7-7.8-20c-10.4-10.4-27.4-10.4-37.8,0
	l-10.9,11.1l-11-11.1c-5.1-5-11.8-7.8-18.9-7.8s-13.8,2.8-18.9,7.9c-10.4,10.4-10.4,27.4,0,37.8l48.8,48.8l14.3-14.3v-12
	c0-2.5,1.9-4.5,4.3-4.6h0v-22.8c0-1.6,1.1-3,2.5-3.4v-17.5c0-0.9,0.4-1.8,1.2-2.4l8.7-6.5c2-1.5,4.8-0.1,4.8,2.4v21.5l-8.6,1.9
	c-0.4,0.1-0.4,0.7,0.1,0.7h8.5c1.5,0.5,2.5,1.8,2.5,3.4v19.6l-10.9,2.3c-0.5,0.1-0.4,0.9,0.1,0.9h10.8c0.8,0,1.5,0.3,2.1,0.7
	c1.3,0.8,2.2,2.2,2.2,3.9V386l-2.7,2.7l-18.9,18.9l-20.9,20.9L268,361.5c-10-10-15.4-23.2-15.4-37.3s5.5-27.4,15.4-37.3
	c10-10,23.2-15.4,37.3-15.4c10.8,0,21.2,3.2,29.9,9.3c24.2-16.6,59.2-10.9,75.7,17.3c2.2,3.8,4,7.9,5,12.2
	C420.9,329.3,415.6,348.3,402.4,361.5L402.4,361.5z"/>
<g>
	<path class="st0" d="M488,323.8c0,11.1-9.3,21.5-23.5,21.5h-30v-70.4h23.1c12.8,0,22.1,8.6,22.1,18.3c0,7.2-4.8,12.4-7.7,12.4
		C479.6,305.7,488,313.2,488,323.8z M457.1,291.2h-4.6v11h4.5c4.1,0,7.1-2,7.1-5.6C464.1,293.2,461.1,291.2,457.1,291.2z
		 M470.1,321.6c0-4.1-3-6.6-8.3-6.6l-9.3,0v13.4h9.2C466,328.3,470.1,326.3,470.1,321.6z"/>
	<path class="st0" d="M514.4,292.3v9.8h22.4v15.6h-22.4v10.1h27.2v17.5H496v-70.4h45.6v17.4H514.4z"/>
	<path class="st0" d="M597.1,337.1h-26.3l-3.6,8.2h-20.4l32.7-71.3h8.9l32.8,71.3h-20.5L597.1,337.1z M591.2,323.5l-7.2-16.7
		l-7.2,16.7H591.2z"/>
	<path class="st0" d="M621,319.7v-44.8h18.8v44.8c0,5.9,5,9.7,10.3,9.7c5.3,0,10.4-4,10.4-9.7v-44.8h18.8v44.8
		c0,16.2-13.1,27.6-29.2,27.6C634.1,347.3,621,335.9,621,319.7z"/>
	<path class="st0" d="M739.3,292.4h-16.9v52.9h-18.7v-52.9h-16.9v-17.5h52.5V292.4z"/>
	<path class="st0" d="M763.8,314.9l-21.7-40h21.2l9.8,20.4l9.8-20.4h21.2l-21.7,40v30.4h-18.6V314.9z"/>
</g>
<path class="st0" d="M434,364h22.7c12.5,0,22.7,9.8,22.7,21.8c0,12-10.2,21.7-22.7,21.7H447v21h-13V364z M466.4,385.7
	c0-4.9-4.4-8.8-9.7-8.8H447v17.9l9.7,0C462,394.8,466.4,390.7,466.4,385.7z"/>
<path class="st0" d="M520.2,428.5L499.6,398v30.5h-13l0-64.5h21.1c12,0,21.9,9.3,21.9,20.9c0,8.3-5,15.5-11.9,18l18.3,25.7H520.2z
	 M499.6,393.1l8.3,0c4.4,0,8.3-3.5,8.3-8.1s-4-8.1-8.3-8.1h-8.3V393.1z"/>
<path class="st0" d="M542.2,364h13v64.5h-13V364z"/>
<path class="st0" d="M563.6,396.3c0-18.2,15.3-33.6,33.5-33.6c8.4,0.1,15.8,3.4,22.6,10l-7.5,10.2c-4.4-4.3-9.7-7-15.2-7
	c-10.4,0-20.3,9.2-20.3,20.5c0,11.5,10.2,20.4,20.2,20.4c5.9,0,11-3.2,15.3-7.4l7.4,10.5c-5.7,5.6-12.6,9.9-22.4,9.9
	C578.7,429.8,563.6,414.5,563.6,396.3z"/>
<path class="st0" d="M639.9,376.8v12.6h22.3v12.9h-22.3v13.3h25.9v12.9H627V364h38.9v12.8H639.9z"/>
<path class="st0" d="M709,367c0,10.2-8.1,18.1-18,18.1c-10,0-18-8-18-18.1c0-10,7.9-18,18-18C701.1,349,709,357.1,709,367z
	 M705.2,367c0-7.8-6.4-14.3-14.2-14.3s-14.2,6.4-14.2,14.3c0,7.8,6.5,14.2,14.2,14.2C698.8,381.3,705.2,374.8,705.2,367z M694,368.7
	l5.1,7.2h-4.4l-5.8-8.5v8.5h-3.6l0-18.1h5.9c3.4,0,6.2,2.6,6.2,5.8C697.4,365.9,696,368,694,368.7z M688.9,365.9h2.4
	c1.2,0,2.3-1,2.3-2.3c0-1.3-1.1-2.3-2.3-2.3h-2.4V365.9z"/>
</svg>
